<svg width="64" height="64" viewBox="0 0 16.933 16.933" xmlns="http://www.w3.org/2000/svg"><g transform="translate(20.633 -52.932) scale(.53241)"><rect x="-38.754" y="99.421" width="31.805" height="31.805" ry="6.949" fill="#e800b8"/><path d="M-16.824 108.02c-1.926.071-3.872 1.32-4.427 3.533v8.623c3.557 0 3.142-3.45 3.142-3.45h1.796v-3.117h-1.796v-1.772c.53-1.142 2.027-1.281 2.67 0v4.323c.803 4.11 4.18 4.11 4.18 4.11v-3.166c-1.417-.448-1.063-2.456-1.063-2.456h1.063v-3.095h-1.251c-.48-2.498-2.388-3.604-4.314-3.533zm-17.148.266v9.48c0 1.686 1.727 3.238 4.176 2.347-.934-1.057-1.036-1.087-1.036-1.771v-10.056zm4.004 3.22v6.473c-.023 2.162 4.13 2.327 4.678 1.394-.142 2.244-3.379 1.347-3.379 1.347v2.692c6.733 1.441 6.544-3.52 6.544-3.52v-8.386h-3.07v5.126c.003.496-1.721.483-1.725 0v-5.126z" fill="#f2f2f2"/></g></svg>