<svg width="64" height="64" viewBox="0 0 16.933 16.933" xmlns="http://www.w3.org/2000/svg"><g transform="translate(20.633 -78.332) scale(.53241)"><rect x="-38.754" y="147.13" width="31.805" height="31.805" ry="6.949" fill="#007fa3"/><path d="M-18.972 147.128l-1.12 6.16-4.116-.886a.92.924 0 0 0-.454.018.92.924 0 0 0-.422.267l-6.98 7.766a.92.924 0 0 0-.193.903l1.853 5.757-8.35 2.922v1.962l8.918-3.12.784 2.435a.92.924 0 0 0 .683.619l10.188 2.187a.92.924 0 0 0 .876-.283l6.98-7.766a.92.924 0 0 0 .193-.904l-3.207-9.954a.92.924 0 0 0-.683-.619l-4.258-.915 1.19-6.55zm-5.102 7.193l3.652.784-1.654 9.095-6.589 2.305-1.678-5.21zm5.464 1.174l3.685.792 2.879 8.94-6.268 6.974-9.15-1.965-.633-1.967 7.142-2.499a.926.926 0 0 0 .606-.709z" color="#000" fill="#f2f2f2" solid-color="#000000" style="font-feature-settings:normal;font-variant-alternates:normal;font-variant-caps:normal;font-variant-ligatures:normal;font-variant-numeric:normal;font-variant-position:normal;isolation:auto;mix-blend-mode:normal;shape-padding:0;text-decoration-color:#000;text-decoration-line:none;text-decoration-style:solid;text-indent:0;text-orientation:mixed;text-transform:none" white-space="normal"/></g></svg>