<svg width="64" height="64" viewBox="0 0 16.933 16.933" xmlns="http://www.w3.org/2000/svg"><g transform="translate(20.633 -27.603) scale(.53241)"><rect x="-38.754" y="51.847" width="31.805" height="31.805" ry="6.949" fill="#1a1a1a"/><path d="M-22.851 55.855A11.893 11.893 0 0 0-34.709 67.04h8.25v-2.285c0-.34.274-.614.614-.614h5.988c.34 0 .614.274.614.614v5.988c0 .34-.274.614-.614.614h-5.988a.613.613 0 0 1-.614-.614v-2.285h-8.26a11.893 11.893 0 0 0 11.868 11.184A11.893 11.893 0 0 0-10.958 67.75 11.893 11.893 0 0 0-22.85 55.855z" fill="#f2f2f2"/></g></svg>