<svg width="64" height="64" viewBox="0 0 16.933 16.933" xmlns="http://www.w3.org/2000/svg"><g transform="translate(201.749 -77.125) scale(.53241)"><rect x="-378.93" y="144.86" width="31.805" height="31.805" ry="6.949" fill="#00a0e1"/><path d="M-372.02 153.6a.605.605 0 0 0-.082.006s-.363.043-.705.287c-.342.244-.76.759-.76 1.422v3.324c0 .066.088.132.108.195 0 0 .086.29.271.596.185.305.53.767 1.168.767h4.66v-1.324h-4.607c.025-.003-.025-.021-.09-.128-.068-.113-.092-.192-.11-.24v-3.19c0-.289.065-.302.127-.346.055-.04.082-.043.09-.045h4.59V153.6zm7.2 0a1.19 1.19 0 0 0-.837.375 1.75 1.75 0 0 0-.35.574c-.147.362-.193.695-.193.695v4.948h1.323v-2.09h3.68v2.09h1.331v-4.861c0-.636-.379-1.108-.693-1.354s-.635-.346-.635-.346l-.097-.031zm5.953 0v6.559h1.324v-2.094h3.245c.073.044.169.107.27.195.192.166.307.347.307.496v1.403h1.322v-1.403c0-.693-.411-1.177-.752-1.476.24-.254.584-.487.697-.766a2.032 2.032 0 0 0 .008-1.498 2.472 2.472 0 0 0-.718-.984c-.28-.236-.483-.432-.965-.432zm1.324 1.324h3.414c-.236 0-.022.005.113.12.135.113.273.287.338.455a.624.624 0 0 1-.002.517c-.074.183-.266.437-.663.724h-3.2zm-7.174 0h3.178c.036.016.08.03.165.096.116.09.176.153.176.31v1.45h-3.68v-1.383c.004-.021.031-.191.096-.354.026-.064.047-.092.065-.119zm-7.291 6.395l-.04.004s-.41.05-.786.332c-.376.283-.733.852-.733 1.617h1.324c0-.415.112-.491.204-.56.086-.065.135-.07.14-.07h3.18c.105 0 .124.012.203.138.08.126.149.37.149.617s-.07.488-.149.612c-.078.123-.091.132-.195.132h-3.258c-.702 0-1.243.44-1.435.846-.192.406-.163.787-.163.787v-.035 2.264h6.207v-1.322h-4.883v-.96l-.002-.017s.006-.088.035-.15c.03-.063-.043-.09.24-.09h3.259c.566 0 1.053-.34 1.31-.744.257-.404.295-.866.295-1.323 0-.457-.037-.917-.293-1.322-.256-.404-.74-.75-1.307-.756h-.002zm7.371.015c-.487 0-.87.245-1.135.53-.265.284-.433.622-.428 1.068v3.223c0 .417.114.815.38 1.14a1.55 1.55 0 0 0 1.183.579h4.771v-3.866h-3.084v1.323h1.762v1.22h-3.449c-.062 0-.098-.018-.158-.092a.544.544 0 0 1-.107-.304v-3.24c0 .056.024-.07.1-.151a.35.35 0 0 1 .165-.106h4.771v-1.324zm7.57.01c-.926 0-1.8.747-1.8 1.674v3.302c0 .927.874 1.673 1.8 1.673h2.885c.927 0 1.783-.746 1.783-1.673v-3.302c0-.927-.856-1.673-1.783-1.673zm0 1.119h2.885c.326 0 .555.23.555.555v3.303a.53.53 0 0 1-.555.553h-2.885a.53.53 0 0 1-.554-.553v-3.303c0-.326.229-.555.554-.555z" color="#000" fill="#f2f2f2" solid-color="#000000" style="font-feature-settings:normal;font-variant-alternates:normal;font-variant-caps:normal;font-variant-ligatures:normal;font-variant-numeric:normal;font-variant-position:normal;isolation:auto;mix-blend-mode:normal;shape-padding:0;text-decoration-color:#000;text-decoration-line:none;text-decoration-style:solid;text-indent:0;text-orientation:mixed;text-transform:none" white-space="normal"/></g></svg>